# xmcd
#
# Track frame offsets:
#	150
#	28222
#	48573
#	69988
#	89621
#	107638
#	135376
#	151388
#	168470
#	185597
#	212498
#	227736
#	239730
#	261143
#	287158
#	301657
#	318872
#
# Disc length: 4508
#
# Revision: 1
# Processed by: cddbd v1.5.1PL0 Copyright (c) Steve Scherf et al.
# Submitted via: CDex 1.50
# Normalized: r0:TDELIM( - )
#
DISCID=ee119a11
DTITLE=Viva la Salsa - Numero Dos - CD 2
DYEAR=2005
DGENRE=Salsa
TTITLE0=Mo' Horizons - Brazil
TTITLE1=Eddie Santiago - Qui Estoy
TTITLE2=Rey Ruiz - Luna Negra
TTITLE3=Mamborama - Oye Mamborama
TTITLE4=Son 14 with Salvador Llorens - Volvares
TTITLE5=Cesar Pedroso - Ya Tu Campana No Suena
TTITLE6=Los Chicos - Sol de Playa
TTITLE7=David Alvarez Y Juego De Manos - Cuida'o Cuida'o
TTITLE8=The Blackout Allstars - I like it
TTITLE9=Aramis Galindo - Ya No Te Necesito
TTITLE10=Los Tres - Flamenco
TTITLE11=Anita O'Day - Peanut Vendor
TTITLE12=Elio Reve jr Y Su Charangon - La Visita
TTITLE13=Bakuleye - Algo Mas
TTITLE14=Generoso Jimenez - Vengo Con Sed
TTITLE15=Toure Kunda - Rapada
TTITLE16=Grupo Mateo - Tu Magia
EXTD=YEAR: 2005
EXTT0=
EXTT1=
EXTT2=
EXTT3=
EXTT4=
EXTT5=
EXTT6=
EXTT7=
EXTT8=
EXTT9=
EXTT10=
EXTT11=
EXTT12=
EXTT13=
EXTT14=
EXTT15=
EXTT16=
PLAYORDER=
